<?xml version="1.0" encoding="UTF-8"?>
<!DOCTYPE svg PUBLIC "-//W3C//DTD SVG 1.1//EN" "http://www.w3.org/Graphics/SVG/1.1/DTD/svg11.dtd">
<!-- Creator: CorelDRAW X7 -->
<svg xmlns="http://www.w3.org/2000/svg" xml:space="preserve" width="50mm" height="50mm" version="1.1" style="shape-rendering:geometricPrecision; text-rendering:geometricPrecision; image-rendering:optimizeQuality; fill-rule:evenodd; clip-rule:evenodd"
viewBox="0 0 500000 500000"
 xmlns:xlink="http://www.w3.org/1999/xlink">
 <defs>
  <style type="text/css">
   <![CDATA[
    .fil6 {fill:#264796}
    .fil4 {fill:#5B5B5B}
    .fil3 {fill:#E31E24}
    .fil0 {fill:#FEFEFE}
    .fil2 {fill:#FFED00}
    .fil5 {fill:black;fill-opacity:0.501961}
    .fil1 {fill:url(#id0)}
   ]]>
  </style>
  <linearGradient id="id0" gradientUnits="userSpaceOnUse" x1="41999" y1="414938" x2="247426" y2="83724">
   <stop offset="0" style="stop-opacity:1; stop-color:#2D4191"/>
   <stop offset="0.278431" style="stop-opacity:1; stop-color:#2C4291"/>
   <stop offset="0.490196" style="stop-opacity:1; stop-color:#047ABD"/>
   <stop offset="0.701961" style="stop-opacity:1; stop-color:#3F4E9A"/>
   <stop offset="1" style="stop-opacity:1; stop-color:#2D4191"/>
  </linearGradient>
 </defs>
 <g id="Слой_x0020_1">
  <metadata id="CorelCorpID_0Corel-Layer"/>
  <circle class="fil0" cx="250000" cy="250000" r="247119"/>
  <path class="fil1" d="M244932 453568c-110935,-1850 -200837,-92872 -200837,-204234 0,-111495 90118,-202601 201235,-204240l-83 86015c-63701,1668 -115140,54134 -115140,118225 0,64013 51315,116426 114909,118215l-84 86019z"/>
  <path class="fil2" d="M248373 45055c112513,0 204278,91766 204278,204279 0,112512 -91765,204278 -204278,204278 -1141,0 -2275,-25 -3411,-44 -10,0 -20,0 -30,0l84 -86019c30,1 61,3 91,3 1085,30 2173,48 3266,48 65137,0 118267,-53130 118267,-118266 0,-65137 -53130,-118267 -118267,-118267 -959,0 -1913,13 -2867,37 -86,2 -173,3 -259,5l83 -86015c107,-2 214,-2 321,-4 907,-15 1812,-35 2722,-35z"/>
  <path class="fil0" d="M98427 255857c6184,-5059 7128,-11029 4489,-17624 1039,-3140 2819,-4564 2853,-7321 -2181,-3248 -1597,-6682 -3604,-11134 -3177,4200 -5082,8914 -2075,15463 -1864,1298 -3860,1488 -6148,1292 1164,8119 7459,10612 -2997,15002 -6975,-106 -8749,-4374 -5320,-12803 -14562,3463 -8577,7274 -7793,12990 -8415,-1763 -14582,2043 -18216,5787l-261 11c3623,3771 9999,4249 18477,2473 -784,5716 -6769,9526 7793,12990 -3429,-8429 -1655,-12697 5320,-12803 10456,4390 4161,6883 2997,15002 2288,-197 4284,-6 6148,1292 -3007,6549 -1102,11263 2075,15463 2007,-4452 1423,-7886 3604,-11134 -34,-2757 -1814,-4182 -2853,-7322 2639,-6594 1695,-12564 -4489,-17624z"/>
  <path class="fil0" d="M127349 167822c7970,-570 12183,-4904 13827,-11814 2659,-1967 4935,-2105 6552,-4339 89,-3911 2546,-6380 3471,-11175 -5016,1600 -9290,4355 -10608,11439 -2271,-13 -4012,-1008 -5768,-2487 -3729,7305 -22,12971 -11096,10531 -5639,-4107 -4629,-8616 3031,-13528 -13895,-5563 -11200,1000 -13855,6123 -5860,-6291 -13093,-6735 -18221,-5771l-220 -141c787,5170 5722,9236 13674,12671 -3936,4219 -11022,3883 -1119,15106 2057,-8864 5965,-11329 11727,-7395 6013,9614 -567,8022 -6198,13987 1983,1158 3504,2464 4279,4599 -6232,3619 -7393,8569 -7217,13832 4206,-2481 5708,-5624 9362,-7021 1562,-2272 928,-4463 1889,-7627 5958,-3868 8627,-9291 6490,-16990z"/>
  <path class="fil0" d="M197898 114612c7008,3837 12897,2475 18022,-2443 3300,-214 5288,903 7857,-99 2194,-3239 5597,-3984 8972,-7514 -5085,-1371 -10169,-1371 -15114,3871 -1902,-1241 -2826,-3020 -3501,-5215 -7092,4121 -7044,10892 -15032,2843 -2516,-6506 776,-9750 9875,-9730 -8668,-12203 -9957,-5226 -14963,-2357 -1519,-8462 -7359,-12754 -12192,-14720l-108 -237c-2138,4771 -192,10862 4632,18056 -5594,1416 -11369,-2705 -9123,12093 6530,-6337 11151,-6292 13863,135 -151,11339 -4821,6437 -12785,8401 1040,2048 1611,3969 1106,6184 -7199,-334 -10855,3199 -13558,7718 4880,193 7844,-1635 11673,-831 2543,-1064 3197,-3249 5719,-5388 7103,-25 12284,-3138 14657,-10767z"/>
  <path class="fil0" d="M126270 340576c2123,-7703 -556,-13121 -6521,-16977 -967,-3163 -338,-5355 -1903,-7624 -3657,-1391 -5165,-4531 -9376,-7004 -166,5264 1004,10211 7242,13819 -770,2136 -2289,3445 -4270,4607 5642,5954 12220,4350 6224,13975 -5754,3944 -9668,1487 -11741,-7374 -9882,11242 -2796,10893 1147,15105 -7886,3424 -10720,10094 -11522,15250l-206 159c5136,984 10615,-2310 16508,-8659 2664,5118 -19,11686 13866,6097 -7669,-4897 -8687,-9405 -3056,-13522 11070,-2460 7373,3212 11115,10511 1754,-1483 3493,-2481 5764,-2498 1331,7082 5610,9828 10629,11420 -934,-4794 -3395,-7259 -3492,-11169 -1621,-2231 -3897,-2365 -6560,-4327 -1657,-6907 -5878,-11234 -13848,-11789z"/>
  <path class="fil0" d="M194565 394021c-2213,-7677 -7327,-10898 -14428,-11071 -2477,-2192 -3085,-4390 -5605,-5508 -3844,725 -6770,-1166 -11653,-1075 2608,4575 6189,8184 13393,8001 459,2225 -152,4134 -1235,6159 7921,2131 12693,-2672 12607,8667 -2847,6369 -7468,6317 -13863,-156 -2556,14748 3304,10749 8867,12282 -4936,7039 -3869,14207 -1860,19022l-93 244c4894,-1843 7846,-7515 9554,-16007 4945,2974 6089,9976 15010,-2043 -9098,-170 -12321,-3482 -9669,-9935 8155,-7879 7965,-1111 14969,3158 721,-2180 1682,-3939 3610,-5141 4834,5344 9917,5451 15029,4187 -3301,-3600 -6687,-4416 -8812,-7700 -2548,-1056 -4559,19 -7854,-264 -5021,-5025 -10880,-6509 -17967,-2820z"/>
  <path class="fil0" d="M143161 118139c-5,-96 205,-111 318,24 2532,-2996 1679,-9587 -1913,-12475 -1363,-1488 -90,-3655 -134,-5481 -3565,-332 -3064,5087 -4386,5852 -1258,729 -2985,-1687 -4875,-1109 -70,-84 -141,-169 -211,-253 -1224,1835 1166,4061 211,5251 -957,1190 -6238,-123 -6449,3448 1799,321 4134,-608 5398,962 2312,3989 8697,5828 12041,3781z"/>
  <path class="fil0" d="M230379 84036c34,-89 232,-17 280,152 3532,-1709 5431,-8077 3323,-12176 -641,-1913 1404,-3376 2106,-5063 -3122,-1752 -4868,3403 -6387,3564 -1445,156 -2041,-2754 -4003,-2994 -30,-105 -60,-211 -90,-316 -1864,1178 -585,4184 -1942,4882 -1357,699 -5649,-2647 -7293,530 1514,1024 4024,1125 4541,3073 491,4584 5578,8860 9465,8348z"/>
  <path class="fil0" d="M82630 200910c-56,-76 110,-205 279,-155 452,-3897 -3904,-8916 -8494,-9335 -1959,-485 -2096,-2995 -3144,-4492 -3153,1695 262,5933 -417,7301 -644,1304 -3419,246 -4675,1773 -104,-31 -210,-62 -315,-93 -5,2204 3219,2737 3080,4257 -138,1520 -5264,3348 -3465,6439 1677,-728 3108,-2793 5029,-2184 4133,2044 10470,45 12122,-3511z"/>
  <path class="fil0" d="M82405 304147c-93,-23 -46,-228 116,-297 -2133,-3293 -8687,-4389 -12494,-1790 -1819,873 -3523,-975 -5284,-1462 -1352,3315 3979,4409 4327,5896 334,1415 -2480,2366 -2476,4343 -100,43 -202,86 -302,129 1400,1703 4225,62 5085,1322 861,1260 -1927,5933 1429,7171 829,-1629 618,-4132 2487,-4886 4488,-1055 8101,-6632 7112,-10426z"/>
  <path class="fil0" d="M141399 387393c-92,28 -156,-173 -51,-314 -3509,-1755 -9713,626 -11673,4798 -1125,1675 -3531,948 -5296,1422 517,3542 5666,1779 6721,2883 1005,1050 -937,3298 71,5000 -66,87 -131,176 -196,264 2071,757 3672,-2091 5053,-1442 1382,649 1351,6091 4870,5454 -112,-1824 -1565,-3874 -336,-5472 3331,-3186 3614,-9826 837,-12593z"/>
  <path class="fil0" d="M227707 421389c-72,63 -214,-93 -178,-265 -3922,-123 -8556,4639 -8588,9249 -319,1992 -2809,2340 -4212,3510 1954,3000 5890,-759 7310,-198 1353,532 532,3386 2160,4509 -22,107 -45,215 -67,322 2198,-181 2458,-3437 3984,-3427 1526,10 3779,4964 6707,2911 -866,-1609 -3044,-2862 -2599,-4827 1690,-4290 -836,-10436 -4517,-11784z"/>
  <path class="fil3" d="M285217 48402c13667,2510 26866,6387 39450,11483l-33271 79305c-7322,-2876 -14998,-5036 -22939,-6405l16760 -84383zm75126 30231c10104,6654 19590,14177 28342,22468l-59833 61713c-5133,-4780 -10687,-9113 -16602,-12931l48093 -71250zm54863 53054c6934,9799 13024,20234 18173,31193l-78186 35786c-3042,-6377 -6637,-12442 -10726,-18131l70739 -48848zm31686 69519c2517,10348 4247,20998 5111,31886l-85762 6580c-519,-6363 -1548,-12586 -3041,-18629l83692 -19837zm4285 72582c-1425,11819 -3858,23335 -7222,34454l-82412 -24600c1979,-6499 3408,-13232 4242,-20145l85392 10291zm-22841 72019c-5492,10195 -11829,19875 -18913,28944l-68215 -52292c4168,-5276 7900,-10913 11133,-16856l75995 40204zm-46904 58310c-8251,7105 -17074,13563 -26388,19296l-45773 -72772c5458,-3297 10628,-7026 15467,-11132l56694 64608zm-62746 36989c-10700,3943 -21820,7007 -33265,9118l-16818 -84368c6666,-1158 13143,-2878 19382,-5107l30701 80357zm-73374 12468c-116,-2 -234,-4 -350,-6 -10,0 -20,0 -30,0l84 -86019c30,1 61,3 91,3 61,2 123,3 184,5l21 86017zm-6 -322467c-19,0 -40,2 -59,2l40 -41780 19 41778z"/>
  <polygon class="fil4" points="330827,199278 348331,198817 325299,335627 256664,336088 250215,345300 245148,339312 240542,336548 171446,336548 169603,327796 "/>
  <polygon class="fil3" points="144268,191447 224422,190875 235940,198150 251137,190684 337736,190065 320232,330099 255281,330080 245631,339184 231789,330746 173758,331321 170065,327357 161772,327335 "/>
  <g id="_2273641645472">
   <polygon class="fil5" points="217212,261313 231952,293097 291375,293097 285386,279739 280780,280660 271567,260852 257608,260575 266957,279918 259865,280240 251161,260575 237621,260575 246003,279918 239555,279918 230851,260898 "/>
   <polygon class="fil5" points="280175,261542 294037,290879 284043,311833 300162,313123 326275,260253 309833,260253 302419,277661 293715,260898 "/>
   <path class="fil5" d="M199247 223541c17760,0 32245,15416 32245,34317 0,18902 -14485,34318 -32245,34318 -17760,0 -32245,-15416 -32245,-34318 0,-18901 14485,-34317 32245,-34317zm0 13358c10847,0 19693,9416 19693,20959 0,11544 -8846,20960 -19693,20960 -10847,0 -19693,-9416 -19693,-20960 0,-11543 8846,-20959 19693,-20959z"/>
   <polygon class="fil5" points="276629,226726 276629,257029 290491,257029 290813,246713 302096,274115 314024,247680 314347,257029 327242,257029 326919,226403 313380,226726 302419,250582 290813,226403 "/>
  </g>
  <g id="_2273641642144">
   <polygon class="fil0" points="212443,255476 227183,287260 286605,287260 280617,273901 276011,274823 266798,255015 252839,254738 262188,274081 255096,274403 246392,254738 232852,254738 241234,274081 234786,274081 226082,255060 "/>
   <polygon class="fil0" points="275406,255705 289268,285041 279274,305996 295393,307285 321505,254416 305064,254416 297650,271824 288945,255060 "/>
   <path class="fil0" d="M194478 217704c17760,0 32244,15416 32244,34317 0,18901 -14484,34318 -32244,34318 -17760,0 -32245,-15417 -32245,-34318 0,-18901 14485,-34317 32245,-34317zm0 13358c10846,0 19693,9415 19693,20959 0,11544 -8847,20959 -19693,20959 -10847,0 -19693,-9415 -19693,-20959 0,-11544 8846,-20959 19693,-20959z"/>
   <polygon class="fil0" points="271859,220888 271859,251192 285722,251192 286044,240876 297327,268278 309255,241843 309577,251192 322473,251192 322150,220566 308610,220888 297650,244744 286044,220566 "/>
  </g>
  <path class="fil6" d="M249073 36650c117462,0 212684,95222 212684,212684 0,117461 -95222,212683 -212684,212683 -117461,0 -212683,-95222 -212683,-212683 0,-117462 95222,-212684 212683,-212684zm0 4524c114964,0 208160,93196 208160,208160 0,114963 -93196,208160 -208160,208160 -114963,0 -208159,-93197 -208159,-208160 0,-114964 93196,-208160 208159,-208160z"/>
 </g>
</svg>
