<svg width="24" height="23" viewBox="0 0 24 23" fill="none" xmlns="http://www.w3.org/2000/svg">
<g filter="url(#filter0_d_1_264)">
<path fill-rule="evenodd" clip-rule="evenodd" d="M17 0.572693C19 2.57269 21 4.07269 19 5.57269C18.9496 6.31161 11.7277 11.208 12.2536 12.0727C12.7775 12.934 6.59445 8.71941 7.43026 9.5571C9.10176 11.2324 11.092 12.7199 12.2536 13.5833C12.3761 13.6744 12.3999 13.8453 12.3068 13.9651C12.2138 14.0849 12.039 14.1082 11.9165 14.0172C10.7566 13.155 8.73537 11.6454 7.03149 9.93769C6.17958 9.08383 5.39882 8.1725 4.84381 7.26002C4.29084 6.35085 3.94591 5.41432 4.00697 4.5185C4.15357 2.36785 5.47932 0.840282 7.15669 0.293445C8.83673 -0.254249 10.8357 0.19261 12.2991 1.91012C12.3975 2.02569 12.3816 2.19751 12.2634 2.29383C12.1452 2.39018 11.9695 2.37457 11.871 2.25897C10.5487 0.706956 18.4539 0.0986982 17 0.572693Z" fill="#FF0000"/>
<path fill-rule="evenodd" clip-rule="evenodd" d="M16.6672 0.810403C18.1238 1.28526 19.3052 2.61849 19.4372 4.55473C19.4876 5.29365 18.0259 5.20802 17.5 6.07269C16.9761 6.93401 15.8358 7.735 15 8.57269C13.3285 10.248 8.16153 8.70931 6.99997 9.57269C6.49995 9.07269 11.6001 13.8453 11.6933 13.9651C11.7863 14.0849 11.9611 14.1082 12.0836 14.0172C13.2435 13.155 15.2647 11.6454 16.9686 9.93769C17.8205 9.08383 18.6013 8.1725 19.1563 7.26002C19.7093 6.35086 20.0542 5.41433 19.9931 4.5185C19.8465 2.36785 18.5208 0.840283 16.8434 0.293446C15.1634 -0.254248 13.2001 -0.144826 11.7367 1.57269C11.6382 1.68826 11.6185 2.19751 11.7367 2.29383C11.8549 2.39019 12.4015 2.6883 12.5 2.57269C13.8224 1.02068 15.2133 0.336409 16.6672 0.810403Z" fill="#FF0000"/>
</g>
<defs>
<filter id="filter0_d_1_264" x="0" y="0" width="24.0001" height="22.0727" filterUnits="userSpaceOnUse" color-interpolation-filters="sRGB">
<feFlood flood-opacity="0" result="BackgroundImageFix"/>
<feColorMatrix in="SourceAlpha" type="matrix" values="0 0 0 0 0 0 0 0 0 0 0 0 0 0 0 0 0 0 127 0" result="hardAlpha"/>
<feOffset dy="4"/>
<feGaussianBlur stdDeviation="2"/>
<feComposite in2="hardAlpha" operator="out"/>
<feColorMatrix type="matrix" values="0 0 0 0 0 0 0 0 0 0 0 0 0 0 0 0 0 0 0.25 0"/>
<feBlend mode="normal" in2="BackgroundImageFix" result="effect1_dropShadow_1_264"/>
<feBlend mode="normal" in="SourceGraphic" in2="effect1_dropShadow_1_264" result="shape"/>
</filter>
</defs>
</svg>
