<svg width="170" height="37" viewBox="0 0 170 37" fill="none" xmlns="http://www.w3.org/2000/svg">
<path d="M55.578 26.18C54.294 26.18 53.136 25.904 52.104 25.352C51.072 24.788 50.262 24.014 49.674 23.03C49.086 22.034 48.792 20.924 48.792 19.7C48.792 18.476 49.086 17.372 49.674 16.388C50.262 15.392 51.072 14.618 52.104 14.066C53.136 13.502 54.294 13.22 55.578 13.22C56.862 13.22 58.02 13.502 59.052 14.066C60.084 14.618 60.894 15.386 61.482 16.37C62.07 17.354 62.364 18.464 62.364 19.7C62.364 20.936 62.07 22.046 61.482 23.03C60.894 24.014 60.084 24.788 59.052 25.352C58.02 25.904 56.862 26.18 55.578 26.18ZM55.578 24.128C56.418 24.128 57.174 23.942 57.846 23.57C58.518 23.186 59.046 22.658 59.43 21.986C59.814 21.302 60.006 20.54 60.006 19.7C60.006 18.86 59.814 18.104 59.43 17.432C59.046 16.748 58.518 16.22 57.846 15.848C57.174 15.464 56.418 15.272 55.578 15.272C54.738 15.272 53.982 15.464 53.31 15.848C52.638 16.22 52.11 16.748 51.726 17.432C51.342 18.104 51.15 18.86 51.15 19.7C51.15 20.54 51.342 21.302 51.726 21.986C52.11 22.658 52.638 23.186 53.31 23.57C53.982 23.942 54.738 24.128 55.578 24.128ZM70.0823 16.28C71.2943 16.28 72.2663 16.634 72.9983 17.342C73.7303 18.05 74.0963 19.1 74.0963 20.492V26H71.8463V20.78C71.8463 19.94 71.6483 19.31 71.2523 18.89C70.8563 18.458 70.2923 18.242 69.5603 18.242C68.7323 18.242 68.0783 18.494 67.5983 18.998C67.1183 19.49 66.8783 20.204 66.8783 21.14V26H64.6283V16.388H66.7703V17.63C67.1423 17.186 67.6103 16.85 68.1743 16.622C68.7383 16.394 69.3743 16.28 70.0823 16.28ZM76.9506 12.644H79.2006V26H76.9506V12.644ZM82.1537 16.388H84.4037V26H82.1537V16.388ZM83.2877 14.804C82.8797 14.804 82.5377 14.678 82.2617 14.426C81.9857 14.162 81.8477 13.838 81.8477 13.454C81.8477 13.07 81.9857 12.752 82.2617 12.5C82.5377 12.236 82.8797 12.104 83.2877 12.104C83.6957 12.104 84.0377 12.23 84.3137 12.482C84.5897 12.722 84.7277 13.028 84.7277 13.4C84.7277 13.796 84.5897 14.132 84.3137 14.408C84.0497 14.672 83.7077 14.804 83.2877 14.804ZM92.8109 16.28C94.0229 16.28 94.9949 16.634 95.7269 17.342C96.4589 18.05 96.8249 19.1 96.8249 20.492V26H94.5749V20.78C94.5749 19.94 94.3769 19.31 93.9809 18.89C93.5849 18.458 93.0209 18.242 92.2889 18.242C91.4609 18.242 90.8069 18.494 90.3269 18.998C89.8469 19.49 89.6069 20.204 89.6069 21.14V26H87.3569V16.388H89.4989V17.63C89.8709 17.186 90.3389 16.85 90.9029 16.622C91.4669 16.394 92.1029 16.28 92.8109 16.28ZM108.803 21.248C108.803 21.404 108.791 21.626 108.767 21.914H101.225C101.357 22.622 101.699 23.186 102.251 23.606C102.815 24.014 103.511 24.218 104.339 24.218C105.395 24.218 106.265 23.87 106.949 23.174L108.155 24.56C107.723 25.076 107.177 25.466 106.517 25.73C105.857 25.994 105.113 26.126 104.285 26.126C103.229 26.126 102.299 25.916 101.495 25.496C100.691 25.076 100.067 24.494 99.623 23.75C99.191 22.994 98.975 22.142 98.975 21.194C98.975 20.258 99.185 19.418 99.605 18.674C100.037 17.918 100.631 17.33 101.387 16.91C102.143 16.49 102.995 16.28 103.943 16.28C104.879 16.28 105.713 16.49 106.445 16.91C107.189 17.318 107.765 17.9 108.173 18.656C108.593 19.4 108.803 20.264 108.803 21.248ZM103.943 18.08C103.223 18.08 102.611 18.296 102.107 18.728C101.615 19.148 101.315 19.712 101.207 20.42H106.661C106.565 19.724 106.271 19.16 105.779 18.728C105.287 18.296 104.675 18.08 103.943 18.08Z" fill="#E0AA45"/>
<path d="M125.083 19.448C125.779 19.676 126.331 20.06 126.739 20.6C127.147 21.128 127.351 21.788 127.351 22.58C127.351 23.672 126.931 24.518 126.091 25.118C125.251 25.706 124.027 26 122.419 26H116.155V13.4H122.059C123.547 13.4 124.693 13.694 125.497 14.282C126.301 14.858 126.703 15.656 126.703 16.676C126.703 17.3 126.559 17.852 126.271 18.332C125.983 18.812 125.587 19.184 125.083 19.448ZM118.495 15.236V18.71H121.807C122.623 18.71 123.247 18.566 123.679 18.278C124.123 17.978 124.345 17.546 124.345 16.982C124.345 16.406 124.123 15.974 123.679 15.686C123.247 15.386 122.623 15.236 121.807 15.236H118.495ZM122.275 24.164C124.087 24.164 124.993 23.558 124.993 22.346C124.993 21.134 124.087 20.528 122.275 20.528H118.495V24.164H122.275ZM133.304 16.28C134.72 16.28 135.8 16.622 136.544 17.306C137.3 17.978 137.678 18.998 137.678 20.366V26H135.554V24.83C135.278 25.25 134.882 25.574 134.366 25.802C133.862 26.018 133.25 26.126 132.53 26.126C131.81 26.126 131.18 26.006 130.64 25.766C130.1 25.514 129.68 25.172 129.38 24.74C129.092 24.296 128.948 23.798 128.948 23.246C128.948 22.382 129.266 21.692 129.902 21.176C130.55 20.648 131.564 20.384 132.944 20.384H135.428V20.24C135.428 19.568 135.224 19.052 134.816 18.692C134.42 18.332 133.826 18.152 133.034 18.152C132.494 18.152 131.96 18.236 131.432 18.404C130.916 18.572 130.478 18.806 130.118 19.106L129.236 17.468C129.74 17.084 130.346 16.79 131.054 16.586C131.762 16.382 132.512 16.28 133.304 16.28ZM132.998 24.488C133.562 24.488 134.06 24.362 134.492 24.11C134.936 23.846 135.248 23.474 135.428 22.994V21.878H133.106C131.81 21.878 131.162 22.304 131.162 23.156C131.162 23.564 131.324 23.888 131.648 24.128C131.972 24.368 132.422 24.488 132.998 24.488ZM148.072 24.2V26H139.774V24.578L145.048 18.188H139.882V16.388H147.928V17.81L142.636 24.2H148.072ZM153.818 16.28C155.234 16.28 156.314 16.622 157.058 17.306C157.814 17.978 158.192 18.998 158.192 20.366V26H156.068V24.83C155.792 25.25 155.396 25.574 154.88 25.802C154.376 26.018 153.764 26.126 153.044 26.126C152.324 26.126 151.694 26.006 151.154 25.766C150.614 25.514 150.194 25.172 149.894 24.74C149.606 24.296 149.462 23.798 149.462 23.246C149.462 22.382 149.78 21.692 150.416 21.176C151.064 20.648 152.078 20.384 153.458 20.384H155.942V20.24C155.942 19.568 155.738 19.052 155.33 18.692C154.934 18.332 154.34 18.152 153.548 18.152C153.008 18.152 152.474 18.236 151.946 18.404C151.43 18.572 150.992 18.806 150.632 19.106L149.75 17.468C150.254 17.084 150.86 16.79 151.568 16.586C152.276 16.382 153.026 16.28 153.818 16.28ZM153.512 24.488C154.076 24.488 154.574 24.362 155.006 24.11C155.45 23.846 155.762 23.474 155.942 22.994V21.878H153.62C152.324 21.878 151.676 22.304 151.676 23.156C151.676 23.564 151.838 23.888 152.162 24.128C152.486 24.368 152.936 24.488 153.512 24.488ZM163.222 17.792C163.87 16.784 165.01 16.28 166.642 16.28V18.422C166.45 18.386 166.276 18.368 166.12 18.368C165.244 18.368 164.56 18.626 164.068 19.142C163.576 19.646 163.33 20.378 163.33 21.338V26H161.08V16.388H163.222V17.792Z" fill="#F9271C"/>
<path d="M5.14014 18.4827C5.14014 25.9481 10.9977 32 18.2235 32C25.4492 32 31.3068 25.9481 31.3068 18.4827C31.3068 11.0173 25.4492 4.96545 18.2235 4.96545" stroke="url(#paint0_linear_204_40)" stroke-width="8.37333"/>
<ellipse cx="18.4154" cy="19.4245" rx="4.9442" ry="4.64593" fill="url(#paint1_linear_204_40)"/>
<rect x="13.4712" y="14.7786" width="5.14196" height="4.46009" fill="url(#paint2_linear_204_40)"/>
<rect x="10.7686" y="4" width="5.07604" height="4.84554" fill="#FE9527"/>
<rect x="6.1543" y="8.40515" width="5.07604" height="4.84554" fill="#FE9527"/>
<rect x="3.38379" y="12.8102" width="3.23021" height="3.08352" fill="#FE9527"/>
<rect x="2" y="11.4886" width="1.84583" height="1.76201" fill="#FE9527"/>
<rect x="3.38379" y="5.76196" width="3.23021" height="3.08352" fill="#FE9527"/>
<rect x="2" y="4" width="1.84583" height="2.20252" fill="#FE9527"/>
<rect x="6.1543" y="4" width="2.30729" height="2.20252" fill="#FE9527"/>
<defs>
<linearGradient id="paint0_linear_204_40" x1="9.88048" y1="7.70809" x2="28.9935" y2="30.2126" gradientUnits="userSpaceOnUse">
<stop stop-color="#FB862D"/>
<stop offset="0.809692" stop-color="#FD6229" stop-opacity="0.974383"/>
<stop offset="1" stop-color="#FE3F25" stop-opacity="0.95"/>
</linearGradient>
<linearGradient id="paint1_linear_204_40" x1="18.4154" y1="14.7786" x2="18.4154" y2="24.0704" gradientUnits="userSpaceOnUse">
<stop stop-color="#FE6326"/>
<stop offset="1" stop-color="#FE6326" stop-opacity="0.96"/>
</linearGradient>
<linearGradient id="paint2_linear_204_40" x1="16.0422" y1="14.7786" x2="16.0422" y2="19.2387" gradientUnits="userSpaceOnUse">
<stop stop-color="#FE6326"/>
<stop offset="1" stop-color="#FE6326" stop-opacity="0.96"/>
</linearGradient>
</defs>
</svg>
