<svg width="122" height="20" viewBox="0 0 122 20" fill="none" xmlns="http://www.w3.org/2000/svg">
<path d="M7.578 17.18C6.294 17.18 5.136 16.904 4.104 16.352C3.072 15.788 2.262 15.014 1.674 14.03C1.086 13.034 0.792 11.924 0.792 10.7C0.792 9.476 1.086 8.372 1.674 7.388C2.262 6.392 3.072 5.618 4.104 5.066C5.136 4.502 6.294 4.22 7.578 4.22C8.862 4.22 10.02 4.502 11.052 5.066C12.084 5.618 12.894 6.386 13.482 7.37C14.07 8.354 14.364 9.464 14.364 10.7C14.364 11.936 14.07 13.046 13.482 14.03C12.894 15.014 12.084 15.788 11.052 16.352C10.02 16.904 8.862 17.18 7.578 17.18ZM7.578 15.128C8.418 15.128 9.174 14.942 9.846 14.57C10.518 14.186 11.046 13.658 11.43 12.986C11.814 12.302 12.006 11.54 12.006 10.7C12.006 9.86 11.814 9.104 11.43 8.432C11.046 7.748 10.518 7.22 9.846 6.848C9.174 6.464 8.418 6.272 7.578 6.272C6.738 6.272 5.982 6.464 5.31 6.848C4.638 7.22 4.11 7.748 3.726 8.432C3.342 9.104 3.15 9.86 3.15 10.7C3.15 11.54 3.342 12.302 3.726 12.986C4.11 13.658 4.638 14.186 5.31 14.57C5.982 14.942 6.738 15.128 7.578 15.128ZM22.0823 7.28C23.2943 7.28 24.2663 7.634 24.9983 8.342C25.7303 9.05 26.0963 10.1 26.0963 11.492V17H23.8463V11.78C23.8463 10.94 23.6483 10.31 23.2523 9.89C22.8563 9.458 22.2923 9.242 21.5603 9.242C20.7323 9.242 20.0783 9.494 19.5983 9.998C19.1183 10.49 18.8783 11.204 18.8783 12.14V17H16.6283V7.388H18.7703V8.63C19.1423 8.186 19.6103 7.85 20.1743 7.622C20.7383 7.394 21.3743 7.28 22.0823 7.28ZM28.9506 3.644H31.2006V17H28.9506V3.644ZM34.1537 7.388H36.4037V17H34.1537V7.388ZM35.2877 5.804C34.8797 5.804 34.5377 5.678 34.2617 5.426C33.9857 5.162 33.8477 4.838 33.8477 4.454C33.8477 4.07 33.9857 3.752 34.2617 3.5C34.5377 3.236 34.8797 3.104 35.2877 3.104C35.6957 3.104 36.0377 3.23 36.3137 3.482C36.5897 3.722 36.7277 4.028 36.7277 4.4C36.7277 4.796 36.5897 5.132 36.3137 5.408C36.0497 5.672 35.7077 5.804 35.2877 5.804ZM44.8109 7.28C46.0229 7.28 46.9949 7.634 47.7269 8.342C48.4589 9.05 48.8249 10.1 48.8249 11.492V17H46.5749V11.78C46.5749 10.94 46.3769 10.31 45.9809 9.89C45.5849 9.458 45.0209 9.242 44.2889 9.242C43.4609 9.242 42.8069 9.494 42.3269 9.998C41.8469 10.49 41.6069 11.204 41.6069 12.14V17H39.3569V7.388H41.4989V8.63C41.8709 8.186 42.3389 7.85 42.9029 7.622C43.4669 7.394 44.1029 7.28 44.8109 7.28ZM60.803 12.248C60.803 12.404 60.791 12.626 60.767 12.914H53.225C53.357 13.622 53.699 14.186 54.251 14.606C54.815 15.014 55.511 15.218 56.339 15.218C57.395 15.218 58.265 14.87 58.949 14.174L60.155 15.56C59.723 16.076 59.177 16.466 58.517 16.73C57.857 16.994 57.113 17.126 56.285 17.126C55.229 17.126 54.299 16.916 53.495 16.496C52.691 16.076 52.067 15.494 51.623 14.75C51.191 13.994 50.975 13.142 50.975 12.194C50.975 11.258 51.185 10.418 51.605 9.674C52.037 8.918 52.631 8.33 53.387 7.91C54.143 7.49 54.995 7.28 55.943 7.28C56.879 7.28 57.713 7.49 58.445 7.91C59.189 8.318 59.765 8.9 60.173 9.656C60.593 10.4 60.803 11.264 60.803 12.248ZM55.943 9.08C55.223 9.08 54.611 9.296 54.107 9.728C53.615 10.148 53.315 10.712 53.207 11.42H58.661C58.565 10.724 58.271 10.16 57.779 9.728C57.287 9.296 56.675 9.08 55.943 9.08Z" fill="#E0AA45"/>
<path d="M77.0829 10.448C77.7789 10.676 78.3309 11.06 78.7389 11.6C79.1469 12.128 79.3509 12.788 79.3509 13.58C79.3509 14.672 78.9309 15.518 78.0909 16.118C77.2509 16.706 76.0269 17 74.4189 17H68.1549V4.4H74.0589C75.5469 4.4 76.6929 4.694 77.4969 5.282C78.3009 5.858 78.7029 6.656 78.7029 7.676C78.7029 8.3 78.5589 8.852 78.2709 9.332C77.9829 9.812 77.5869 10.184 77.0829 10.448ZM70.4949 6.236V9.71H73.8069C74.6229 9.71 75.2469 9.566 75.6789 9.278C76.1229 8.978 76.3449 8.546 76.3449 7.982C76.3449 7.406 76.1229 6.974 75.6789 6.686C75.2469 6.386 74.6229 6.236 73.8069 6.236H70.4949ZM74.2749 15.164C76.0869 15.164 76.9929 14.558 76.9929 13.346C76.9929 12.134 76.0869 11.528 74.2749 11.528H70.4949V15.164H74.2749ZM85.3043 7.28C86.7203 7.28 87.8003 7.622 88.5443 8.306C89.3003 8.978 89.6783 9.998 89.6783 11.366V17H87.5543V15.83C87.2783 16.25 86.8823 16.574 86.3663 16.802C85.8623 17.018 85.2503 17.126 84.5303 17.126C83.8103 17.126 83.1803 17.006 82.6403 16.766C82.1003 16.514 81.6803 16.172 81.3803 15.74C81.0923 15.296 80.9483 14.798 80.9483 14.246C80.9483 13.382 81.2663 12.692 81.9023 12.176C82.5503 11.648 83.5643 11.384 84.9443 11.384H87.4283V11.24C87.4283 10.568 87.2243 10.052 86.8163 9.692C86.4203 9.332 85.8263 9.152 85.0343 9.152C84.4943 9.152 83.9603 9.236 83.4323 9.404C82.9163 9.572 82.4783 9.806 82.1183 10.106L81.2363 8.468C81.7403 8.084 82.3463 7.79 83.0543 7.586C83.7623 7.382 84.5123 7.28 85.3043 7.28ZM84.9983 15.488C85.5623 15.488 86.0603 15.362 86.4923 15.11C86.9363 14.846 87.2483 14.474 87.4283 13.994V12.878H85.1063C83.8103 12.878 83.1623 13.304 83.1623 14.156C83.1623 14.564 83.3243 14.888 83.6483 15.128C83.9723 15.368 84.4223 15.488 84.9983 15.488ZM100.072 15.2V17H91.7738V15.578L97.0478 9.188H91.8818V7.388H99.9278V8.81L94.6358 15.2H100.072ZM105.818 7.28C107.234 7.28 108.314 7.622 109.058 8.306C109.814 8.978 110.192 9.998 110.192 11.366V17H108.068V15.83C107.792 16.25 107.396 16.574 106.88 16.802C106.376 17.018 105.764 17.126 105.044 17.126C104.324 17.126 103.694 17.006 103.154 16.766C102.614 16.514 102.194 16.172 101.894 15.74C101.606 15.296 101.462 14.798 101.462 14.246C101.462 13.382 101.78 12.692 102.416 12.176C103.064 11.648 104.078 11.384 105.458 11.384H107.942V11.24C107.942 10.568 107.738 10.052 107.33 9.692C106.934 9.332 106.34 9.152 105.548 9.152C105.008 9.152 104.474 9.236 103.946 9.404C103.43 9.572 102.992 9.806 102.632 10.106L101.75 8.468C102.254 8.084 102.86 7.79 103.568 7.586C104.276 7.382 105.026 7.28 105.818 7.28ZM105.512 15.488C106.076 15.488 106.574 15.362 107.006 15.11C107.45 14.846 107.762 14.474 107.942 13.994V12.878H105.62C104.324 12.878 103.676 13.304 103.676 14.156C103.676 14.564 103.838 14.888 104.162 15.128C104.486 15.368 104.936 15.488 105.512 15.488ZM115.222 8.792C115.87 7.784 117.01 7.28 118.642 7.28V9.422C118.45 9.386 118.276 9.368 118.12 9.368C117.244 9.368 116.56 9.626 116.068 10.142C115.576 10.646 115.33 11.378 115.33 12.338V17H113.08V7.388H115.222V8.792Z" fill="#F9271C"/>
</svg>
