<svg width="16" height="14" viewBox="0 0 16 14" fill="none" xmlns="http://www.w3.org/2000/svg">
<path fill-rule="evenodd" clip-rule="evenodd" d="M3.33288 0.737709C1.8763 1.21257 0.694874 2.5458 0.562893 4.48203C0.512527 5.22095 0.796716 6.04405 1.32264 6.90872C1.84653 7.77004 2.59445 8.64672 3.43026 9.48441C5.10176 11.1597 7.09203 12.6472 8.2536 13.5106C8.3761 13.6017 8.39993 13.7726 8.30683 13.8924C8.21375 14.0122 8.03899 14.0355 7.91648 13.9445C6.75657 13.0823 4.73537 11.5727 3.03149 9.865C2.17958 9.01114 1.39882 8.09981 0.84381 7.18732C0.290835 6.27816 -0.0540888 5.34163 0.00697493 4.44581C0.153571 2.29516 1.47932 0.767589 3.15669 0.220752C4.83673 -0.326942 6.83567 0.119917 8.29907 1.83743C8.39754 1.953 8.38157 2.12482 8.26339 2.22114C8.14519 2.31749 7.96952 2.30188 7.87104 2.18628C6.54865 0.634263 4.78683 0.263715 3.33288 0.737709Z" fill="black"/>
<path fill-rule="evenodd" clip-rule="evenodd" d="M12.6672 0.737709C14.1238 1.21257 15.3052 2.5458 15.4372 4.48203C15.4876 5.22095 15.2034 6.04405 14.6775 6.90872C14.1536 7.77004 13.4056 8.64672 12.5698 9.48441C10.8983 11.1597 8.90806 12.6472 7.7465 13.5106C7.62399 13.6017 7.60016 13.7726 7.69327 13.8924C7.78634 14.0122 7.96111 14.0355 8.08361 13.9445C9.24353 13.0823 11.2647 11.5727 12.9686 9.865C13.8205 9.01114 14.6013 8.09981 15.1563 7.18732C15.7093 6.27816 16.0542 5.34163 15.9931 4.44581C15.8465 2.29516 14.5208 0.767589 12.8434 0.220752C11.1634 -0.326942 9.16442 0.119917 7.70103 1.83743C7.60255 1.953 7.61853 2.12482 7.7367 2.22114C7.8549 2.31749 8.03058 2.30188 8.12905 2.18628C9.45144 0.634263 11.2133 0.263715 12.6672 0.737709Z" fill="black"/>
</svg>
