<svg width="36" height="39" viewBox="0 0 36 39" fill="none" xmlns="http://www.w3.org/2000/svg">
<path d="M5.14014 19.7C5.14014 27.7928 10.9977 34.3533 18.2235 34.3533C25.4492 34.3533 31.3068 27.7928 31.3068 19.7C31.3068 11.6072 25.4492 5.04663 18.2235 5.04663" stroke="url(#paint0_linear_201_26)" stroke-width="8.37333"/>
<ellipse cx="18.4154" cy="20.7209" rx="4.9442" ry="5.0364" fill="url(#paint1_linear_201_26)"/>
<rect x="13.4712" y="15.6844" width="5.14196" height="4.83495" fill="url(#paint2_linear_201_26)"/>
<rect x="10.7686" y="4" width="5.07604" height="5.25279" fill="#FE9527"/>
<rect x="6.1543" y="8.77539" width="5.07604" height="5.25279" fill="#FE9527"/>
<rect x="3.38379" y="13.5507" width="3.23021" height="3.34268" fill="#FE9527"/>
<rect x="2" y="12.118" width="1.84583" height="1.9101" fill="#FE9527"/>
<rect x="3.38379" y="5.91003" width="3.23021" height="3.34268" fill="#FE9527"/>
<rect x="2" y="4" width="1.84583" height="2.38763" fill="#FE9527"/>
<rect x="6.1543" y="4" width="2.30729" height="2.38763" fill="#FE9527"/>
<defs>
<linearGradient id="paint0_linear_201_26" x1="9.88048" y1="8.01977" x2="30.8054" y2="30.7475" gradientUnits="userSpaceOnUse">
<stop stop-color="#FB862D"/>
<stop offset="0.809692" stop-color="#FD6229" stop-opacity="0.974383"/>
<stop offset="1" stop-color="#FE3F25" stop-opacity="0.95"/>
</linearGradient>
<linearGradient id="paint1_linear_201_26" x1="18.4154" y1="15.6844" x2="18.4154" y2="25.7573" gradientUnits="userSpaceOnUse">
<stop stop-color="#FE6326"/>
<stop offset="1" stop-color="#FE6326" stop-opacity="0.96"/>
</linearGradient>
<linearGradient id="paint2_linear_201_26" x1="16.0422" y1="15.6844" x2="16.0422" y2="20.5194" gradientUnits="userSpaceOnUse">
<stop stop-color="#FE6326"/>
<stop offset="1" stop-color="#FE6326" stop-opacity="0.96"/>
</linearGradient>
</defs>
</svg>
